<?xml version="1.0" standalone="no"?>
<svg width="600" height="600" viewBox="0 0 600 600" xmlns="http://www.w3.org/2000/svg" >
    <linearGradient id="shape1" x2="1" y2="1">
        <stop offset="0%" stop-color="#11998e" />
        <stop offset="100%" stop-color="#38ef7d" />
    </linearGradient>

  <g transform="translate(300,300) scale(3)">
    <path d="M60.3,-82.2C71.3,-62.6,68.6,-37.1,72.9,-12.9C77.2,11.4,88.4,34.5,81.4,47.5C74.5,60.6,49.4,63.6,31.1,58.6C12.9,53.6,1.5,40.4,-14,35.9C-29.4,31.3,-48.9,35.4,-60.7,28.5C-72.5,21.6,-76.6,3.7,-77.6,-17.6C-78.5,-38.9,-76.2,-63.5,-62.7,-82.6C-49.3,-101.7,-24.6,-115.4,0,-115.4C24.6,-115.4,49.3,-101.7,60.3,-82.2Z" fill="url(#shape1)" />
  </g>
</svg>
    